<svg xmlns="http://www.w3.org/2000/svg" viewBox="0 0 20.43 20.43"><defs><style>.cls-1{fill:none;stroke:#803556;stroke-miterlimit:10;stroke-width:0.5px;}.cls-2{fill:#803556;}</style></defs><title>logoРесурс 2</title><g id="Слой_2" data-name="Слой 2"><g id="Слой_1-2" data-name="Слой 1"><circle class="cls-1" cx="10.22" cy="10.22" r="9.97"/><path class="cls-2" d="M10.22,16.36a.26.26,0,0,1-.21-.11L6.3,10.76a4.35,4.35,0,0,1-.66-2.29,4.49,4.49,0,0,1,4.58-4.4,4.49,4.49,0,0,1,4.57,4.4,4.29,4.29,0,0,1-.66,2.28l-3.7,5.5A.26.26,0,0,1,10.22,16.36Zm0-11.79a4,4,0,0,0-4.08,3.9,3.76,3.76,0,0,0,.58,2l3.5,5.19,3.5-5.2a3.78,3.78,0,0,0,.57-2A4,4,0,0,0,10.22,4.57Z"/><path class="cls-2" d="M10.22,10.47a2,2,0,1,1,2.09-2A2.06,2.06,0,0,1,10.22,10.47Zm0-3.53a1.56,1.56,0,0,0-1.6,1.52,1.6,1.6,0,0,0,3.19,0A1.56,1.56,0,0,0,10.22,6.94Z"/></g></g></svg>