<svg xmlns="http://www.w3.org/2000/svg" viewBox="0 0 134 107.79"><defs><style>.cls-1{fill:#803556;}</style></defs><title>logoРесурс 4</title><g id="Слой_2" data-name="Слой 2"><g id="Слой_1-2" data-name="Слой 1"><path id="_Составной_контур_" data-name="&lt;Составной контур&gt;" class="cls-1" d="M109.6,62.05a5.84,5.84,0,0,0-1.74-4.15L53.42,4.43a5.89,5.89,0,0,0-3.75-1.67L6.23,0A5.85,5.85,0,0,0,0,6.21l2.8,42.66a5.88,5.88,0,0,0,1.73,3.77L59,106.1a5.85,5.85,0,0,0,8.23,0l40.64-39.91A5.82,5.82,0,0,0,109.6,62.05ZM63.1,93.77,14.36,45.9,12.14,12.06l34.6,2.19L95.4,62.05ZM37.84,25a8.7,8.7,0,0,1,0,12.35,8.82,8.82,0,0,1-12.43,0,8.73,8.73,0,0,1,0-12.35,8.8,8.8,0,0,1,12.43,0Zm96.16,37a5.08,5.08,0,0,1-1.52,3.62L91.84,105.59a5.14,5.14,0,0,1-7.25,0,5.07,5.07,0,0,1,0-7.21l36.94-36.28L70.83,12.2a5.08,5.08,0,0,1,0-7.21A5.15,5.15,0,0,1,78,5l54.44,53.47A5.1,5.1,0,0,1,134,62.05Z"/></g></g></svg>