<svg xmlns="http://www.w3.org/2000/svg" viewBox="0 0 80.79 107.73"><defs><style>.cls-1{fill:#803556;fill-rule:evenodd;}</style></defs><title>logoРесурс 2</title><g id="Слой_2" data-name="Слой 2"><g id="Слой_1-2" data-name="Слой 1"><path class="cls-1" d="M40.4,23.57A16.84,16.84,0,1,0,57.24,40.4,16.82,16.82,0,0,0,40.4,23.57Zm0,23.56a6.74,6.74,0,1,1,6.72-6.73,6.75,6.75,0,0,1-6.72,6.73ZM40.4,0a40.41,40.41,0,0,0-34,62.3l26.88,41.57a8.41,8.41,0,0,0,14.15,0L74.35,62.3A40.41,40.41,0,0,0,40.4,0ZM65.86,56.81,40.4,96.21,14.93,56.82a30.31,30.31,0,1,1,50.93,0Z"/></g></g></svg>