<svg xmlns="http://www.w3.org/2000/svg" viewBox="0 0 122.13 115.52"><defs><style>.cls-1{fill:#803556;}</style></defs><title>logoРесурс 3</title><g id="Слой_2" data-name="Слой 2"><g id="Слой_1-2" data-name="Слой 1"><path class="cls-1" d="M120.28,27.24A39.32,39.32,0,0,0,102.76,4.59a34,34,0,0,0-27.43-3,31.93,31.93,0,0,0-17,12.48,39.59,39.59,0,0,0-4.45,8.44,40,40,0,0,0-8.46-4.41,32,32,0,0,0-21.07-.64A34,34,0,0,0,3.51,35.53,39.27,39.27,0,0,0,2,64.11c3.15,10.12,9.77,18.18,20.83,25.38,9.72,6.32,22.48,11.77,37.31,18.1,5,2.14,10.66,4.56,16.63,7.19a8.57,8.57,0,0,0,6,.35h0a8.58,8.58,0,0,0,4.77-3.72c3.45-5.62,6.87-11,9.62-15.4,8.58-13.59,16-25.33,20.39-36.06C122.57,47.75,123.43,37.36,120.28,27.24ZM97.71,13.32a29.29,29.29,0,0,1,12.94,16.92c2.45,7.85,1.7,15.83-2.42,25.88S97,77.42,88.63,90.64c-2.43,3.84-5.69,9-9,14.39-5.53-2.43-10.81-4.68-15.5-6.69l-.1,0C49.67,92.17,37.28,86.88,28.29,81S14,69,11.59,61.11a29.24,29.24,0,0,1,1-21.27A24,24,0,0,1,27.39,27.11h0a22,22,0,0,1,6.58-1,22.85,22.85,0,0,1,8,1.48,32.85,32.85,0,0,1,10.14,6.31,6,6,0,0,0,9.79-3.05,33.32,33.32,0,0,1,4.76-11,22.1,22.1,0,0,1,11.72-8.64A24.06,24.06,0,0,1,97.71,13.32Z"/></g></g></svg>