<svg xmlns="http://www.w3.org/2000/svg" viewBox="0 0 115.81 106.91"><defs><style>.cls-1{fill:#803556;}</style></defs><title>logoРесурс 1</title><g id="Слой_2" data-name="Слой 2"><g id="Слой_1-2" data-name="Слой 1"><path id="_Составной_контур_" data-name="&lt;Составной контур&gt;" class="cls-1" d="M68.09,30.79V19.46a4.46,4.46,0,1,1,8.91,0V30.79a4.46,4.46,0,0,1-8.91,0Zm4.24,17.33a5.08,5.08,0,0,0,3.59-8.69,5.09,5.09,0,0,0-7.2,7.2A5.17,5.17,0,0,0,72.33,48.12ZM106,43.32a24.16,24.16,0,0,1-14.14,7.21C89,67.54,77,76.27,63,78V96.72H73.92a5.1,5.1,0,0,1,0,10.19h-32a5.1,5.1,0,0,1,0-10.19H52.81V78c-14-1.73-26-10.48-28.79-27.48a24.09,24.09,0,0,1-14.17-7.2C-.54,32.56,0,14.06,0,13.28A4.52,4.52,0,0,1,4.46,8.91H23.54V5.09a5,5,0,0,1,5-5.09H87.33a5,5,0,0,1,4.94,5.09V8.91h19.08a4.51,4.51,0,0,1,4.45,4.37C115.83,14.06,116.35,32.56,106,43.32Zm-89.63-6.2a16.58,16.58,0,0,0,7.21,4.24V17.82H9.09C9.54,22.91,11.12,31.75,16.33,37.12ZM82.09,10.18H33.72v33c0,18.4,12.44,25,24.19,25s24.18-6.56,24.18-25ZM99.48,37.1c4.92-5.1,6.76-12.92,7.27-19.28H92.27V41.35A16.61,16.61,0,0,0,99.48,37.1Z"/></g></g></svg>