<svg xmlns="http://www.w3.org/2000/svg" viewBox="0 0 42.17 42.17"><defs><style>.cls-1{fill:#f39bb9;}.cls-2{fill:#fff;}</style></defs><title>logoРесурс 12</title><g id="Слой_2" data-name="Слой 2"><g id="Слой_1-2" data-name="Слой 1"><circle class="cls-1" cx="21.09" cy="21.09" r="21.09"/><path class="cls-2" d="M32.65,11a1.06,1.06,0,0,0-1.06-1.05H21.71a1.09,1.09,0,0,0-.75.3l-13,13a1.06,1.06,0,0,0,0,1.49l9.92,9.91a1.05,1.05,0,0,0,.75.31,1,1,0,0,0,.74-.31l13-13a1,1,0,0,0,.31-.75Zm-14,21.4-8.43-8.43L22.15,12h8.39l0,8.43Z"/><circle class="cls-2" cx="24.63" cy="17.97" r="1.99"/></g></g></svg>