<svg xmlns="http://www.w3.org/2000/svg" viewBox="0 0 31.97 19.75"><defs><style>.cls-1{fill:#3fd5ae;}</style></defs><title>logoРесурс 15</title><g id="Слой_2" data-name="Слой 2"><g id="Слой_1-2" data-name="Слой 1"><path class="cls-1" d="M31.25,0H.58L.51,0,.39.09A.5.5,0,0,0,.27.17.38.38,0,0,0,.18.26s0,0,0,0,0,0,0,.07A.67.67,0,0,0,0,.5L0,.65s0,0,0,.06V19a.71.71,0,0,0,.71.71H31.25A.71.71,0,0,0,32,19V.71A.71.71,0,0,0,31.25,0ZM1.43,2.08,15.54,11.8a.72.72,0,0,0,.4.12.73.73,0,0,0,.41-.12L30.54,2v16.3H1.43Zm14.51,8.26L3,1.43H28.87Z"/></g></g></svg>