<svg xmlns="http://www.w3.org/2000/svg" viewBox="0 0 42.27 42.27"><defs><style>.cls-1{fill:#9eca43;}.cls-2{fill:#fff;}</style></defs><title>logoРесурс 9</title><g id="Слой_2" data-name="Слой 2"><g id="Слой_1-2" data-name="Слой 1"><circle class="cls-1" cx="21.13" cy="21.13" r="21.13"/><path id="_Составной_контур_" data-name="&lt;Составной контур&gt;" class="cls-2" d="M34.72,17.64a3.13,3.13,0,0,0-1.6-2,4.86,4.86,0,0,0-3-.32L28.33,9.17a1.21,1.21,0,0,0-.88-.84,1.18,1.18,0,0,0-1.16.37c-4.28,4.76-6,5.92-10.73,8l-3.7,1.07a6.2,6.2,0,0,0-1.27,11.37,6.08,6.08,0,0,0,3,.77A6,6,0,0,0,15,29.72l.4,1.4a4.19,4.19,0,0,0,1.17,1.93l.62.59a1.19,1.19,0,1,0,1.64-1.73l-.62-.59a2,2,0,0,1-.52-.85l-.39-1.4,1.72-.5c4.95-.74,7.18-.69,13.24,1a1,1,0,0,0,.33.05,1.19,1.19,0,0,0,1.14-1.52L32,22a4.84,4.84,0,0,0,2.42-1.81A3.12,3.12,0,0,0,34.72,17.64Zm-23,9.4a3.76,3.76,0,0,1-1.81-2.28,3.82,3.82,0,0,1,2.58-4.71l2.68-.77,1.24,4.33.85,3-2.7.78A3.7,3.7,0,0,1,11.75,27Zm12.16-1.31a31,31,0,0,0-4.29.34L17.88,20l-.43-1.5a24.61,24.61,0,0,0,9.16-6.59l4.25,14.89A26.78,26.78,0,0,0,23.91,25.73ZM32.38,19a2.41,2.41,0,0,1-1.05.75l-.59-2.08a2.33,2.33,0,0,1,1.28.13,1,1,0,0,1,.36,1.2Zm-7.56-2a1.05,1.05,0,0,1-.23,1.46,21.76,21.76,0,0,1-2.41,1.48,1,1,0,0,1-.48.12,1,1,0,0,1-.48-2,18.23,18.23,0,0,0,2.14-1.31A1,1,0,0,1,24.82,17Z"/></g></g></svg>