<svg xmlns="http://www.w3.org/2000/svg" viewBox="0 0 58.92 55.07">
    <defs>
        <style>.cls-1{fill:#9eca43;}</style>
    </defs>
    <title>logoРесурс 8</title>
    <g id="Слой_2" data-name="Слой 2">
        <g id="Слой_1-2" data-name="Слой 1">
            <path id="_Составной_контур_" data-name="&lt;Составной контур&gt;" class="cls-1"
                  d="M58.62,20a6.84,6.84,0,0,0-3.44-4.32A10.53,10.53,0,0,0,48.64,15L44.89,1.86a2.57,2.57,0,0,0-4.37-1C31.35,11.08,27.58,13.57,17.49,18L9.55,20.29a13.32,13.32,0,0,0-9,16.43A13.12,13.12,0,0,0,16.29,46l.86,3a9.16,9.16,0,0,0,2.51,4.15L21,54.37a2.56,2.56,0,0,0,3.62-.1,2.56,2.56,0,0,0-.1-3.62l-1.33-1.26a4,4,0,0,1-1.11-1.83l-.86-3,3.69-1.07C35.54,41.91,40.33,42,53.33,45.74a2.74,2.74,0,0,0,.7.09,2.56,2.56,0,0,0,2.46-3.26L52.74,29.42A10.28,10.28,0,0,0,58,25.52,6.69,6.69,0,0,0,58.62,20ZM9.32,40.21a8.08,8.08,0,0,1-3.88-4.9A8.17,8.17,0,0,1,11,25.22l5.77-1.67,2.65,9.3,1.81,6.38L15.42,40.9A8,8,0,0,1,9.32,40.21ZM35.41,37.4a66.59,66.59,0,0,0-9.19.73L22.48,25l-.92-3.22c8.18-3.72,12.53-6.59,19.66-14.13l9.1,31.94A57.65,57.65,0,0,0,35.41,37.4ZM53.58,22.84a4.87,4.87,0,0,1-2.25,1.62L50.06,20a5.19,5.19,0,0,1,2.76.27,1.68,1.68,0,0,1,.87,1.18A1.57,1.57,0,0,1,53.58,22.84ZM37.37,18.6a2.25,2.25,0,0,1-.5,3.13,47,47,0,0,1-5.16,3.17,2.16,2.16,0,0,1-1,.26,2.24,2.24,0,0,1-1-4.23,43.8,43.8,0,0,0,4.6-2.83A2.25,2.25,0,0,1,37.37,18.6Z"/>
        </g>
    </g>
</svg>