<svg xmlns="http://www.w3.org/2000/svg" viewBox="0 0 25.41 25.37"><defs><style>.cls-1{fill:#3fd5ae;}</style></defs><title>logoРесурс 14</title><g id="Слой_2" data-name="Слой 2"><g id="Слой_1-2" data-name="Слой 1"><path class="cls-1" d="M17.91,25.37h0a6.37,6.37,0,0,1-3.72-1.2,52.32,52.32,0,0,1-7-6,52.19,52.19,0,0,1-6-7C-1,8.15-.18,4.26,3.29.78A2.84,2.84,0,0,1,7.2.78L9.35,2.93a2.76,2.76,0,0,1,0,3.91l-.94.94a.79.79,0,0,0,.07,1A46.3,46.3,0,0,0,12.36,13a47.31,47.31,0,0,0,4.22,3.87.78.78,0,0,0,1,.07l.93-.93a2.82,2.82,0,0,1,3.91,0l2.15,2.15a2.75,2.75,0,0,1,0,3.9C22.46,24.24,20.15,25.37,17.91,25.37ZM5.25,1.47a1.26,1.26,0,0,0-.9.37C1.43,4.75.72,7.93,2.43,10.33a49.82,49.82,0,0,0,5.8,6.82A51.79,51.79,0,0,0,15.05,23c2.36,1.67,5.59,1,8.5-1.92a1.28,1.28,0,0,0,0-1.8L21.4,17.09a1.3,1.3,0,0,0-1.8,0l-.94.94a2.27,2.27,0,0,1-3,.07,47.26,47.26,0,0,1-4.38-4,47.7,47.7,0,0,1-4-4.4,2.26,2.26,0,0,1,.07-3l.94-.94a1.24,1.24,0,0,0,.37-.89A1.26,1.26,0,0,0,8.29,4L6.14,1.84A1.26,1.26,0,0,0,5.25,1.47Z"/></g></g></svg>