<svg xmlns="http://www.w3.org/2000/svg" viewBox="0 0 1920 457.14">
    <defs>
        <style>
            .cls-1{fill:#f5f4f3;}.cls-2{fill:#f48872;}.cls-3{fill:#ed80a8;}.cls-4{fill:#3fd5ae;}.cls-5{fill:#ff5000;}.cls-6{fill:#82bc00;}.cls-7{fill:#fa8d29;}.cls-8{fill:#ffcb00;}
        </style>
    </defs>
    <title>logoРесурс 6</title>
    <g id="Слой_2" data-name="Слой 2">
        <g id="Слой_1-2" data-name="Слой 1">
            <rect class="cls-1" width="1920" height="457.14"/>
            <path class="cls-2"
                  d="M239.17,22.43V198.11a22,22,0,0,1-22,22H41.53a22,22,0,0,1-22-22V22.43a22,22,0,0,1,22-22H217.21A22,22,0,0,1,239.17,22.43Z"/>
            <path class="cls-3"
                  d="M217.21,238.15H42.72c-19,0-22.82,13.76-22.19,20.52C30.35,364.77,115.66,449,222.24,457.11c5.59.43,16.93-3.73,16.93-18.51V260.12A22,22,0,0,0,217.21,238.15Z"/>
            <path class="cls-4"
                  d="M279.22,220.07H453.71c19,0,22.82-13.75,22.2-20.51C466.09,93.46,380.79,9.24,274.2,1.11c-5.6-.42-16.93,3.73-16.93,18.51V198.11A22,22,0,0,0,279.22,220.07Z"/>
            <path class="cls-5"
                  d="M928.5.47H752.82a22,22,0,0,0-22,22V198.11a22,22,0,0,0,22,22H928.5a22,22,0,0,0,22-22V22.43A22,22,0,0,0,928.5.47Z"/>
            <path class="cls-2"
                  d="M927.32,238.15H752.82a22,22,0,0,0-22,22V438.6c0,14.78,11.34,18.94,16.93,18.51C854.39,449,939.69,364.77,949.53,258.67,950.14,251.91,946.32,238.15,927.32,238.15Z"/>
            <path class="cls-6"
                  d="M454,238.15H279.53c-19,0-22.83,13.76-22.21,20.52C267.15,364.77,352.45,449,459,457.11c5.59.43,16.94-3.73,16.94-18.51V260.12A22,22,0,0,0,454,238.15Z"/>
            <path class="cls-7"
                  d="M690.52,238.15H516a22,22,0,0,0-22,22V438.6c0,14.78,11.36,18.94,16.93,18.51,106.59-8.12,191.9-92.34,201.73-198.44C713.35,251.91,709.51,238.15,690.52,238.15Z"/>
            <path class="cls-3"
                  d="M516.32,220.07H690.81a22,22,0,0,0,22-22V19.62c0-14.78-11.36-18.93-16.95-18.51C589.27,9.24,504,93.46,494.13,199.56,493.5,206.32,497.32,220.07,516.32,220.07Z"/>
            <path class="cls-8"
                  d="M1189.92,22.43V198.11a22,22,0,0,1-22,22H992.29a22,22,0,0,1-22-22V22.43a22,22,0,0,1,22-22H1168A22,22,0,0,1,1189.92,22.43Z"/>
            <path class="cls-3"
                  d="M1168,238.15H993.48c-19,0-22.82,13.76-22.2,20.52C981.1,364.77,1066.41,449,1173,457.11c5.6.43,16.93-3.73,16.93-18.51V260.12A22,22,0,0,0,1168,238.15Z"/>
            <path class="cls-4"
                  d="M1230,220.07h174.49c19,0,22.82-13.75,22.19-20.51C1416.84,93.46,1331.54,9.24,1225,1.11,1219.36.69,1208,4.84,1208,19.62V198.11A22,22,0,0,0,1230,220.07Z"/>
            <path class="cls-5"
                  d="M1879.26.47H1703.58a22,22,0,0,0-22,22V198.11a22,22,0,0,0,22,22h175.68a22,22,0,0,0,22-22V22.43A22,22,0,0,0,1879.26.47Z"/>
            <path class="cls-8"
                  d="M1878.08,238.15h-174.5a22,22,0,0,0-22,22V438.6c0,14.78,11.35,18.94,16.93,18.51,106.59-8.12,191.89-92.34,201.73-198.44C1900.9,251.91,1897.08,238.15,1878.08,238.15Z"/>
            <path class="cls-6"
                  d="M1404.77,238.15H1230.28c-19,0-22.83,13.76-22.2,20.52,9.83,106.1,95.13,190.32,201.72,198.44,5.58.43,16.94-3.73,16.94-18.51V260.12A22,22,0,0,0,1404.77,238.15Z"/>
            <path class="cls-7"
                  d="M1641.27,238.15H1466.78a22,22,0,0,0-22,22V438.6c0,14.78,11.35,18.94,16.93,18.51,106.59-8.12,191.9-92.34,201.73-198.44C1664.1,251.91,1660.26,238.15,1641.27,238.15Z"/>
            <path class="cls-3"
                  d="M1467.08,220.07h174.49a22,22,0,0,0,22-22V19.62c0-14.78-11.35-18.93-16.94-18.51C1540,9.24,1454.71,93.46,1444.88,199.56,1444.26,206.32,1448.07,220.07,1467.08,220.07Z"/>
        </g>
    </g>
</svg>